<svg width="99" height="40" viewBox="0 0 99 40" fill="none" xmlns="http://www.w3.org/2000/svg">
<path d="M0 13.0842V18.4482L14.4703 16.8565V11.0507L0 13.0842ZM4.61772 18.7745V37.1553H9.91543V18.233L4.61772 18.7745ZM16.4245 10.7762V37.1553H22.0068V9.99134L16.4245 10.7762ZM23.0468 9.84504V15.9133L31.1077 15.0265V8.71254L23.0468 9.84504ZM23.0468 20.4299V26.6087L28.3383 26.3202V19.9745L23.0468 20.4299ZM23.0468 31.0625V37.1553H31.1077V30.8193L23.0468 31.0625ZM51.954 5.77336V37.1553H59.272V4.74479L51.954 5.77336ZM60.6385 4.5525V11.771L71.3031 10.5985V3.05336L60.6385 4.5525ZM60.6385 17.1999V24.5522L67.6285 24.1705V16.6013L60.6385 17.1999ZM60.6385 29.9262V37.1553H71.3031V29.6042L60.6385 29.9262ZM33.2405 8.41221V37.1553H39.5994V7.51821L33.2405 8.41221ZM40.7863 30.5273V37.155H50.0165V30.2487L40.7863 30.5273ZM95.2125 2.6985C92.8997 0.51336 89.5085 -0.38293 85.7994 0.14993V8.15621C87.3014 8.07279 88.5185 8.63024 89.0608 9.75254C89.9171 11.5219 89.0337 14.1767 86.9497 16.6365C83.7331 20.4322 75.1797 28.2013 75.1797 28.2013L87.4585 27.7976C94.9611 20.4679 97.6554 16.0187 98.1388 10.4659C98.3928 7.52821 97.3265 4.69764 95.2125 2.6985ZM98.5714 37.1553V28.7779L73.6663 29.5282L98.5714 37.1553ZM73.6663 29.5279L73.6688 37.155H98.5714L73.6663 29.5279ZM84.3677 0.32964C77.1325 1.8705 73.5797 7.19336 73.9897 15.8787L81.704 15.1942C81.3525 10.2873 82.8534 9.12334 84.3714 8.48334L84.3677 0.32964Z" fill="#BE64FF"/>
</svg>
