<svg width="24" height="23" viewBox="0 0 24 23" fill="none" xmlns="http://www.w3.org/2000/svg">
<path fill-rule="evenodd" clip-rule="evenodd" d="M1.39323 19.7496C0.742361 20.4005 0.742361 21.4558 1.39323 22.1066C2.04411 22.7575 3.09938 22.7575 3.75026 22.1066L11.75 14.1069L20.0348 22.3917C20.6856 23.0426 21.7409 23.0426 22.3918 22.3917C23.0427 21.7409 23.0427 20.6856 22.3918 20.0347L14.107 11.7499L22.6064 3.25045C23.2573 2.59958 23.2573 1.5443 22.6064 0.893429C21.9556 0.242555 20.9003 0.242555 20.2494 0.893429L11.75 9.39289L3.53561 1.17853C2.88473 0.527659 1.82946 0.527659 1.17858 1.17853C0.527711 1.82941 0.527711 2.88468 1.17859 3.53556L9.39294 11.7499L1.39323 19.7496Z" fill="white"/>
</svg>
