<svg width="30" height="25" viewBox="0 0 30 25" fill="none" xmlns="http://www.w3.org/2000/svg">
<path fill-rule="evenodd" clip-rule="evenodd" d="M0 1.66667C0 0.746192 0.746192 0 1.66667 0H28.3333C29.2538 0 30 0.746192 30 1.66667C30 2.58714 29.2538 3.33333 28.3333 3.33333H1.66667C0.746193 3.33333 0 2.58714 0 1.66667ZM0 12.5C0 11.5795 0.746192 10.8333 1.66667 10.8333H28.3333C29.2538 10.8333 30 11.5795 30 12.5C30 13.4205 29.2538 14.1667 28.3333 14.1667H1.66667C0.746193 14.1667 0 13.4205 0 12.5ZM1.66667 21.6667C0.746192 21.6667 0 22.4129 0 23.3333C0 24.2538 0.746193 25 1.66667 25H28.3333C29.2538 25 30 24.2538 30 23.3333C30 22.4129 29.2538 21.6667 28.3333 21.6667H1.66667Z" fill="white"/>
</svg>
