<svg width="20" height="20" viewBox="0 0 20 20" fill="none" xmlns="http://www.w3.org/2000/svg">
<g clip-path="url(#clip0)">
<path opacity="0.3" fill-rule="evenodd" clip-rule="evenodd" d="M13.4384 15.2156C13.2601 15.7282 13.0571 16.2009 12.834 16.6267C12.1178 17.994 11.2946 18.7179 10.5351 18.9441V14.5793C11.5236 14.6345 12.505 14.8467 13.4384 15.2156ZM14.3509 15.6351C13.4998 18.0242 12.1213 19.6737 10.5351 19.9737V20.0089C12.9145 19.8863 15.0744 18.9328 16.7301 17.433C16.0179 16.6889 15.2128 16.0896 14.3509 15.6351ZM17.4371 16.7255C16.6076 15.8625 15.665 15.1762 14.6556 14.6667C14.9988 13.4213 15.2086 12.021 15.2487 10.5351H20.0089C19.8864 12.9123 18.9346 15.0704 17.4371 16.7255ZM13.7307 14.2559C12.702 13.8587 11.6221 13.6327 10.5351 13.5778V10.5351H14.2483C14.21 11.8815 14.0252 13.1402 13.7307 14.2559ZM9.53506 13.5756V10.5351H5.77529C5.81356 11.8815 5.99841 13.1402 6.29294 14.2559C7.33629 13.8531 8.43236 13.6263 9.53506 13.5756ZM6.58518 15.2156C6.76353 15.7282 6.96655 16.2009 7.18962 16.6267C7.92046 18.022 8.7627 18.7473 9.53506 18.9573V14.5768C8.53077 14.6279 7.53324 14.8409 6.58518 15.2156ZM5.67267 15.6351C6.53217 18.0476 7.92924 19.7058 9.53506 19.9821V20.0113C7.13708 19.899 4.95971 18.943 3.29304 17.4335C4.00534 16.6892 4.81061 16.0897 5.67267 15.6351ZM5.36801 14.6667C4.35835 15.1763 3.41554 15.8628 2.58593 16.7261C1.08818 15.0709 0.136124 12.9126 0.0135716 10.5351H4.77491C4.81499 12.021 5.02479 13.4213 5.36801 14.6667ZM5.77402 9.53505H9.53506V6.44796C8.43236 6.39725 7.33629 6.17049 6.29294 5.76767C5.99502 6.89619 5.80932 8.17109 5.77402 9.53505ZM6.58518 4.80791C7.53324 5.18266 8.53077 5.39562 9.53506 5.44678V1.06623C8.7627 1.27628 7.92046 2.00158 7.18962 3.39683C6.96655 3.82269 6.76353 4.29536 6.58518 4.80791ZM10.5351 9.53505V6.44572C11.6221 6.39084 12.702 6.16482 13.7307 5.76767C14.0286 6.89619 14.2143 8.17109 14.2496 9.53505H10.5351ZM10.5351 5.4443C11.5236 5.389 12.505 5.17688 13.4384 4.80791C13.2601 4.29536 13.0571 3.82269 12.834 3.39683C12.1178 2.02953 11.2946 1.30561 10.5351 1.07947V5.4443ZM15.2499 9.53505C15.213 8.03181 15.0024 6.61527 14.6556 5.3569C15.6652 4.84723 16.608 4.16077 17.4376 3.29753C18.9448 4.96362 19.8991 7.13923 20.0113 9.53505H15.2499ZM14.3509 4.38848C15.213 3.93382 16.0183 3.33432 16.7306 2.58999C15.0748 1.0899 12.9148 0.136236 10.5351 0.0135718V0.0498388C12.1213 0.349842 13.4998 1.9993 14.3509 4.38848ZM9.53506 0.0414419C7.92924 0.317719 6.53217 1.97599 5.67267 4.38848C4.81039 3.93371 4.00493 3.33404 3.2925 2.58946C4.95924 1.07968 7.13683 0.123537 9.53506 0.0112305V0.0414419ZM2.58544 3.29694C3.41517 4.16046 4.35815 4.84712 5.36801 5.3569C5.0212 6.61527 4.81063 8.03181 4.77371 9.53505H0.0112305C0.123438 7.13895 1.07799 4.9631 2.58544 3.29694Z" fill="white"/>
</g>
<defs>
<clipPath id="clip0">
<rect width="20" height="20" fill="white"/>
</clipPath>
</defs>
</svg>
