<svg width="214" height="40" viewBox="0 0 214 40" fill="none" xmlns="http://www.w3.org/2000/svg">
<path d="M83.0317 28.1702C81.0668 28.1702 80.3417 27.3047 80.3417 25.9246C80.3417 24.334 81.2306 23.5153 83.5463 23.5153H86.6107V24.4276C86.6107 26.8603 85.1136 28.1702 83.0317 28.1702ZM77.6984 26.1819C77.6984 28.0767 78.7978 30.1118 82.2364 30.1118C84.2247 30.1118 85.6048 29.3398 86.5639 28.1235L86.8914 29.8077H89.0434V20.7317C89.0434 16.8486 86.7276 16.1702 83.9674 16.1702C81.8855 16.1702 79.1487 16.7784 78.4937 19.9129H81.137C81.4645 18.7433 82.2598 18.065 83.944 18.065C85.3241 18.065 86.6341 18.5562 86.6341 20.755V21.7141H83.7335C80.2013 21.7141 77.6984 22.8837 77.6984 26.1819ZM70.6809 29.8077H73.1604V21.4802C73.1604 19.5387 74.3534 18.6732 75.8738 18.6732C76.3885 18.6732 76.9265 18.6966 77.4645 18.7901V16.3808C76.9966 16.217 76.5756 16.1936 76.1545 16.1936C74.7744 16.1936 73.6984 17.0124 73.1604 18.1586L72.8563 16.5445H70.6809V29.8077ZM158.634 29.8077H161.114V21.4802C161.114 19.5387 162.307 18.6732 163.827 18.6732C164.342 18.6732 164.88 18.6966 165.418 18.7901V16.3808C164.95 16.217 164.529 16.1936 164.108 16.1936C162.728 16.1936 161.652 17.0124 161.114 18.1586L160.81 16.5445H158.634V29.8077ZM112.014 18.6732V16.4977H109.301V12.7083L106.751 13.1059V16.4977H104.833V18.6732H106.751V27.1176C106.751 29.0124 107.453 30.1585 110.237 30.1585C110.845 30.1585 111.757 30.0416 112.318 29.8778V27.9831C111.734 28.1469 111.196 28.1702 110.798 28.1702C109.628 28.1702 109.301 27.6088 109.301 26.3925V18.6732H112.014ZM186.845 18.6732V16.4977H184.108V12.7083L181.558 13.1059V16.4977H179.64V18.6732H181.558V27.1176C181.558 29.0124 182.26 30.1585 185.044 30.1585C185.652 30.1585 186.564 30.0416 187.125 29.8778V27.9831C186.541 28.1469 186.003 28.1702 185.605 28.1702C184.435 28.1702 184.108 27.6088 184.108 26.3925V18.6732H186.845ZM149.886 28.0767C147.5 28.0767 145.956 26.4159 145.956 23.1176C145.956 19.9597 147.547 18.1819 149.909 18.1819C152.295 18.1819 153.699 19.9363 153.699 23.258C153.699 26.486 152.248 28.0767 149.886 28.0767ZM194.237 28.0767C191.851 28.0767 190.307 26.4159 190.307 23.1176C190.307 19.9597 191.897 18.1819 194.26 18.1819C196.646 18.1819 198.049 19.9363 198.049 23.258C198.073 26.486 196.599 28.0767 194.237 28.0767ZM167.149 29.8077H169.582V22.1352C169.582 19.9363 170.541 18.3925 172.833 18.3925C174.985 18.3925 175.64 19.3048 175.64 21.5504V29.7843H178.12V20.8486C178.12 17.7843 176.833 16.1936 173.933 16.1936C171.944 16.1936 170.471 16.9188 169.582 18.1819L169.278 16.4977H167.172V29.8077H167.149ZM92.2481 29.8077H94.6575V22.1352C94.6575 19.9363 95.6165 18.3925 97.9089 18.3925C100.061 18.3925 100.716 19.3048 100.716 21.5504V29.7843H103.196V20.8486C103.196 17.7843 101.909 16.1936 99.0083 16.1936C97.02 16.1936 95.5463 16.9188 94.6575 18.1819L94.3534 16.4977H92.2481V29.8077ZM203.032 29.8077H205.441V22.1352C205.441 19.9363 206.4 18.3925 208.693 18.3925C210.845 18.3925 211.5 19.3048 211.5 21.5504V29.7843H213.979V20.8486C213.979 17.7843 212.693 16.1936 209.792 16.1936C207.804 16.1936 206.33 16.9188 205.441 18.1819L205.137 16.4977H203.032V29.8077ZM128.973 11.9363V9.78426H114.821V11.9363H120.599V29.7843H123.266V11.9363H128.973ZM130.26 29.8077H132.669V22.1352C132.669 19.9363 133.605 18.3925 135.921 18.3925C138.073 18.3925 138.728 19.3048 138.728 21.5504V29.7843H141.207V20.8486C141.207 17.7843 139.921 16.1936 137.02 16.1936C135.032 16.1936 133.558 16.9188 132.669 18.1819V9.78426H130.26V29.8077ZM60.7393 21.8779H65.4645V26.3223C64.0142 27.5855 61.8154 28.0767 60.0376 28.0767C55.5931 28.0767 53.0668 25.1995 53.0668 20.1469C53.0668 14.7901 55.7803 11.8194 59.9908 11.8194C62.4937 11.8194 64.3651 12.7083 66.1428 14.3925L67.7101 12.6147C66.1194 10.8603 63.3826 9.57373 60.2715 9.57373C54.0025 9.57373 50.2832 13.948 50.2832 20.0767C50.2832 26.0884 53.3709 30.2521 60.0844 30.2521C63.7803 30.2521 66.6575 28.6381 68.0844 27.0942V19.8428H60.7627V21.8779H60.7393ZM150.073 16.1702C145.675 16.1702 143.359 19.2112 143.359 23.2112C143.359 27.3515 145.652 30.0884 149.769 30.0884C153.862 30.0884 156.412 27.3983 156.412 23.141C156.412 18.7667 154.049 16.1702 150.073 16.1702ZM194.424 16.1702C190.003 16.1702 187.71 19.2112 187.71 23.2112C187.71 27.3515 190.003 30.0884 194.12 30.0884C198.213 30.0884 200.763 27.3983 200.763 23.141C200.763 18.7667 198.4 16.1702 194.424 16.1702Z" fill="#BE64FF"/>
<path d="M19.8974 12.2404C23.0319 13.2463 25.5115 15.5621 27.1957 18.8837C27.4296 19.3282 27.5466 19.9831 27.4062 20.3808C27.453 20.217 27.5232 20.0767 27.5699 19.913C31.5933 7.28135 17.3477 -1.20988 10.1197 2.60299C9.97933 2.67316 9.83898 2.74334 9.69863 2.8369C0.412076 8.35737 -2.72242 20.3106 2.56413 29.6907C-1.22535 22.4627 7.24249 8.21702 19.8974 12.2404Z" fill="url(#paint0_linear)"/>
<path d="M12.225 19.9129C13.2309 16.7784 15.5467 14.2989 18.8683 12.6147C19.3128 12.3808 19.9677 12.2638 20.3654 12.4041C20.2016 12.3574 20.0613 12.2872 19.8975 12.2404C7.26599 8.21698 -1.22524 22.4626 2.56423 29.6907C2.63441 29.831 2.70459 29.9714 2.79815 30.1117C8.34201 39.4217 20.2718 42.5562 29.6519 37.2463C22.4473 41.0357 8.20166 32.5445 12.225 19.9129Z" fill="url(#paint1_linear)"/>
<path d="M19.8974 27.5855C16.7629 26.5797 14.2834 24.2639 12.5992 20.9422C12.3653 20.4978 12.2483 19.8428 12.3887 19.4452C12.3419 19.6089 12.2717 19.7492 12.2249 19.913C8.2015 32.5446 22.4472 41.0358 29.6752 37.2463C29.8156 37.1762 29.9559 37.106 30.0963 37.0124C39.4062 31.4685 42.5407 19.5387 37.2308 10.1586C40.9969 17.3633 32.529 31.6089 19.8974 27.5855Z" fill="url(#paint2_linear)"/>
<path d="M27.5699 19.913C26.564 23.0475 24.2482 25.527 20.9266 27.2112C20.4821 27.4451 19.8272 27.5621 19.4295 27.4217C19.5932 27.4685 19.7336 27.5387 19.8973 27.5855C32.5289 31.6089 41.0202 17.3633 37.2073 10.1352C37.1371 9.99481 37.0669 9.85446 36.9734 9.71411C31.4295 0.404169 19.4997 -2.73033 10.1196 2.57961C17.3476 -1.20986 31.5933 7.28136 27.5699 19.913Z" fill="url(#paint3_linear)"/>
<defs>
<linearGradient id="paint0_linear" x1="28.2067" y1="14.3177" x2="-0.310634" y2="16.3119" gradientUnits="userSpaceOnUse">
<stop stop-color="#BE64FF"/>
<stop offset="0.1209" stop-color="#BE64FF" stop-opacity="0.8"/>
<stop offset="0.3094" stop-color="#BE64FF" stop-opacity="0.6"/>
<stop offset="0.5492" stop-color="#BE64FF" stop-opacity="0.5"/>
<stop offset="0.7459" stop-color="#BE64FF" stop-opacity="0.4"/>
<stop offset="0.8736" stop-color="#BE64FF" stop-opacity="0.3"/>
<stop offset="1" stop-color="#BE64FF" stop-opacity="0.2"/>
</linearGradient>
<linearGradient id="paint1_linear" x1="14.2705" y1="11.6025" x2="16.2655" y2="40.1325" gradientUnits="userSpaceOnUse">
<stop stop-color="#BE64FF"/>
<stop offset="0.1209" stop-color="#BE64FF" stop-opacity="0.8"/>
<stop offset="0.3094" stop-color="#BE64FF" stop-opacity="0.6"/>
<stop offset="0.5492" stop-color="#BE64FF" stop-opacity="0.5"/>
<stop offset="0.7459" stop-color="#BE64FF" stop-opacity="0.4"/>
<stop offset="0.8736" stop-color="#BE64FF" stop-opacity="0.3"/>
<stop offset="1" stop-color="#BE64FF" stop-opacity="0.2"/>
</linearGradient>
<linearGradient id="paint2_linear" x1="11.5716" y1="25.5377" x2="40.1015" y2="23.5426" gradientUnits="userSpaceOnUse">
<stop stop-color="#BE64FF"/>
<stop offset="0.1209" stop-color="#BE64FF" stop-opacity="0.8"/>
<stop offset="0.3094" stop-color="#BE64FF" stop-opacity="0.6"/>
<stop offset="0.5492" stop-color="#BE64FF" stop-opacity="0.5"/>
<stop offset="0.7459" stop-color="#BE64FF" stop-opacity="0.4"/>
<stop offset="0.8736" stop-color="#BE64FF" stop-opacity="0.3"/>
<stop offset="1" stop-color="#BE64FF" stop-opacity="0.2"/>
</linearGradient>
<linearGradient id="paint3_linear" x1="25.4887" y1="28.2377" x2="23.4935" y2="-0.293971" gradientUnits="userSpaceOnUse">
<stop stop-color="#B969FF"/>
<stop offset="0.1209" stop-color="#B969FF" stop-opacity="0.8"/>
<stop offset="0.3094" stop-color="#B969FF" stop-opacity="0.6"/>
<stop offset="0.5492" stop-color="#B969FF" stop-opacity="0.5"/>
<stop offset="0.7459" stop-color="#B969FF" stop-opacity="0.4"/>
<stop offset="0.8736" stop-color="#B969FF" stop-opacity="0.3"/>
<stop offset="1" stop-color="#B969FF" stop-opacity="0.2"/>
</linearGradient>
</defs>
</svg>
