<svg width="88" height="40" viewBox="0 0 88 40" fill="none" xmlns="http://www.w3.org/2000/svg">
<path fill-rule="evenodd" clip-rule="evenodd" d="M23.8856 9.82576C23.8856 9.82576 19.6465 5.68066 12.4065 5.68066C5.34697 5.68066 1.48558 9.93926 1.48558 14.0872C1.48558 17.0965 3.11162 20.4491 8.87907 21.9626C11.0056 22.5207 12.9125 22.9412 15.1711 23.464C17.1693 23.9263 18.0521 24.7747 17.8242 25.8388C17.5414 27.1551 15.3498 27.6574 13.0065 27.6574C10.9646 27.6574 8.51907 27.2249 5.00372 24.1607L0 27.903C1.42325 29.6035 6.1879 33.2444 13.1805 33.2444C20.173 33.2444 25.3925 30.1979 25.3925 24.3179C25.3925 20.0528 22.4856 18.2137 18.2325 16.9998C15.373 16.184 13.5163 15.7002 11.4781 15.1477C9.69023 14.664 8.65023 13.7942 8.90139 12.6742C9.16093 11.5207 10.8381 11.0602 12.4474 11.0602C14.0353 11.0602 16.9172 11.4379 19.1516 13.3598L23.8856 9.82576Z" fill="#BE64FF"/>
<path fill-rule="evenodd" clip-rule="evenodd" d="M54.0608 6.09473V12.1199H40.3677V16.318H50.0663V22.1375H40.3677V26.384H54.4468V32.4631H32.9575V6.09473H54.0608Z" fill="#BE64FF"/>
<path fill-rule="evenodd" clip-rule="evenodd" d="M27.4961 38.5498H29.1342V0H27.4961V38.5498Z" fill="#BE64FF"/>
<path fill-rule="evenodd" clip-rule="evenodd" d="M57.2168 38.5498H58.855V0H57.2168V38.5498Z" fill="#BE64FF"/>
<path fill-rule="evenodd" clip-rule="evenodd" d="M62.6719 32.4631V6.09473H78.1733C82.6291 6.09473 86.2412 8.69752 86.2412 12.7794C86.2412 15.9971 84.2542 17.8873 82.4608 18.598C82.4608 18.598 82.3324 18.6333 82.1584 18.6501C82.3324 18.6575 82.4608 18.6901 82.4608 18.6901C85.5928 19.6826 87.8263 21.9478 87.8263 25.3599C87.8263 29.7338 84.1519 32.4631 79.6198 32.4631H62.6719ZM70.1175 11.5785V16.2073H76.0375C77.4003 16.2073 78.5045 15.1301 78.5045 13.8929C78.5045 12.6557 77.4003 11.5785 76.0375 11.5785H70.1175ZM77.3594 26.6026C78.6394 26.6026 79.6784 25.5664 79.6784 24.1989C79.6784 22.8324 78.6394 21.7952 77.3594 21.7952H70.1175V26.6036L77.3594 26.6026Z" fill="#BE64FF"/>
</svg>
