<svg width="159" height="40" viewBox="0 0 159 40" fill="none" xmlns="http://www.w3.org/2000/svg">
<path fill-rule="evenodd" clip-rule="evenodd" d="M30.0651 35C30.1886 35 30.2891 34.9186 30.2891 34.7932V5.20633C30.2891 5.08234 30.1886 5 30.0651 5H16.17C10.6591 5 7.43489 6.56683 4.59852 9.23422C1.76214 11.9002 0 15.682 0 20.0005C0 24.319 1.76214 28.1008 4.59756 30.7658C7.4349 33.4341 10.6576 35 16.17 35H30.0651ZM20.6143 22.8374C20.6028 25.1423 18.4199 28.0859 15.1465 28.0859C12.075 28.0859 9.38417 25.3635 9.23247 22.8374H20.6143ZM27.5117 22.8378L26.166 19.6395H24.1826V12.7614C24.1826 9.71005 21.7355 7.97232 19.0629 7.97232C16.1728 7.97232 13.8285 10.0887 13.8285 12.7389L13.8252 16.9439L17.1221 14.7964V12.7484C17.124 11.6642 17.9915 10.9236 18.9666 10.9169C20.1337 10.9346 20.7838 11.6287 20.8034 12.7499V19.6395H5.75459C5.75459 19.6395 5.61241 20.1144 5.61433 21.1613C5.61433 27.6264 10.2722 31.3067 15.0924 31.3163H15.2063C21.983 31.3163 23.8299 25.5535 24.1449 22.8378H27.5117Z" fill="#BE64FF"/>
<path d="M78.5913 11.5076C73.6436 11.5076 70.1873 15.0539 70.1873 20.1311C70.1873 25.0508 73.8005 28.7608 78.5913 28.7608C83.3602 28.7608 86.9581 25.0508 86.9581 20.1311C86.9574 15.0539 83.517 11.5076 78.5913 11.5076ZM78.5913 26.128C75.151 26.128 73.5841 23.0187 73.5841 20.1311C73.5841 17.2282 75.3396 14.1405 78.5913 14.1405C81.819 14.1405 83.5622 17.2277 83.5622 20.1311C83.5622 23.0187 82.006 26.128 78.5913 26.128ZM107.508 11.4822C102.67 11.4822 99.5872 15.1032 99.5872 19.9176C99.5872 25.2079 102.702 28.7838 108.459 28.7838C111.281 28.7838 112.659 28.0768 113.87 27.6622V24.4835C113.097 25.0901 110.677 26.1093 108.593 26.1093C105.602 26.1093 102.948 24.3093 102.948 21.0904H115.022C115.025 20.9482 115.029 20.8209 115.029 20.6807C115.029 15.6202 113.067 11.4822 107.508 11.4822ZM102.825 18.6237C103.059 16.5202 104.336 14.0754 107.428 14.0754C110.15 14.0754 111.696 16.1381 111.696 18.6237H102.825ZM139.745 11.4822C134.905 11.4822 131.823 15.1032 131.823 19.9176C131.823 25.2079 134.938 28.7838 140.694 28.7838C143.517 28.7838 144.895 28.0768 146.104 27.6622V24.4835C145.331 25.0901 142.913 26.1093 140.829 26.1093C137.838 26.1093 135.184 24.3093 135.184 21.0904H147.257C147.259 20.9482 147.265 20.8209 147.265 20.6807C147.265 15.6202 145.303 11.4822 139.745 11.4822ZM135.06 18.6237C135.295 16.5202 136.572 14.0754 139.665 14.0754C142.386 14.0754 143.931 16.1381 143.931 18.6237H135.06ZM96.1362 26.0192C94.9797 26.0192 93.811 25.1825 93.8117 23.3126C93.8117 23.3126 93.8117 14.9922 93.8117 14.6499C94.139 14.6499 97.5183 14.6499 97.5183 14.6499V11.8862C97.5183 11.8862 94.1382 11.8862 93.8117 11.8862C93.8117 11.5569 93.8117 7.6386 93.8117 7.6386L90.4777 8.8823C90.4777 8.8823 90.4777 11.5636 90.4777 11.8862C90.1565 11.8862 87.8606 11.8862 87.8606 11.8862V14.6499C87.8606 14.6499 90.1565 14.6499 90.4777 14.6499C90.4777 14.9926 90.4777 23.9148 90.4777 23.9148C90.4777 27.0998 92.2593 28.7838 95.6296 28.7838C96.6384 28.7838 97.6246 28.5014 98.2134 28.3329L98.3424 28.2884V25.3021L98.0687 25.4779C97.5077 25.8374 96.8578 26.0192 96.1362 26.0192ZM158.62 25.4779C158.06 25.8374 157.411 26.0192 156.689 26.0192C155.532 26.0192 154.364 25.1825 154.364 23.3126C154.364 23.3126 154.364 14.9922 154.364 14.6499C154.691 14.6499 158.072 14.6499 158.072 14.6499V11.8862C158.072 11.8862 154.691 11.8862 154.364 11.8862C154.364 11.5569 154.364 7.6386 154.364 7.6386L151.031 8.8823C151.031 8.8823 151.031 11.5636 151.031 11.8862C150.709 11.8862 148.414 11.8862 148.414 11.8862V14.6499C148.414 14.6499 150.709 14.6499 151.031 14.6499C151.031 14.9926 151.031 23.9148 151.031 23.9148C151.031 27.0998 152.812 28.7838 156.183 28.7838C157.191 28.7838 158.177 28.5014 158.767 28.3329L158.895 28.2884V25.3021L158.62 25.4779ZM60.9399 11.4985C58.3659 11.4985 56.5386 12.6771 55.5745 13.8901C55.5745 13.3133 55.5745 11.8781 55.5745 11.8781H52.3671L52.3667 34.1579H55.7009C55.7009 34.1579 55.7009 27.3022 55.7009 26.4669C56.823 27.993 58.5875 28.7757 60.9725 28.7757C66.2245 28.7757 68.0881 23.9675 68.0881 19.8501C68.0881 15.9969 66.2159 11.4985 60.9399 11.4985ZM60.275 26.1892C56.9168 26.1892 55.5228 22.8598 55.5228 20.1661C55.5228 17.1564 57.0748 14.083 60.3066 14.083C63.5379 14.083 64.805 17.1559 64.7418 20.0713C64.8056 22.6061 63.4747 26.1892 60.275 26.1892ZM49.3952 25.0494V18.3608C49.3952 13.6781 47.2755 11.4985 42.7235 11.4985C40.8527 11.4985 39.0316 12.0179 37.3102 13.0437L37.2168 13.0998L37.4035 16.0946L37.674 15.8672C38.8502 14.8772 40.6023 14.2616 42.2481 14.2616C44.8934 14.2616 46.0007 15.3885 46.0524 18.111C44.9806 18.0592 44.1644 18.0568 43.072 18.0568C40.2174 18.0568 35.3857 19.2153 35.3857 23.5582C35.3857 26.9231 37.5524 28.7757 41.4879 28.7757C44.1213 28.7757 45.6665 27.42 46.3784 26.5669C46.3784 27.1151 46.3784 28.3966 46.3784 28.3966H49.548L49.5207 28.1941C49.4369 27.5626 49.3952 26.5344 49.3952 25.0494ZM46.2396 21.9406C46.2396 24.3515 44.6876 26.1892 41.7411 26.1892C40.3787 26.1892 38.7314 25.2715 38.7314 23.5577C38.7314 20.7046 42.723 20.4508 44.3386 20.4508C44.9724 20.4508 45.6058 20.5146 46.2396 20.5146V21.9406ZM131.563 11.8781H127.278C127.278 11.8781 121.588 17.6226 121.035 18.1818C121.035 17.3685 121.035 5.82141 121.035 5.82141H117.701V28.3966H121.035C121.035 28.3966 121.035 21.2335 121.035 20.3891C121.607 21.046 128 28.3966 128 28.3966H132.48C132.48 28.3966 124.385 19.4738 124.149 19.223C124.397 18.9875 131.563 11.8781 131.563 11.8781Z" fill="#BE64FF"/>
</svg>
