<svg width="181" height="40" viewBox="0 0 181 40" fill="none" xmlns="http://www.w3.org/2000/svg">
<path d="M39.3324 18.5621C41.8206 18.5621 43.2176 17.5401 43.2176 15.1123C43.2176 12.8125 41.6897 11.5772 39.376 11.5772H36.8441V18.5619H39.3324V18.5621ZM19.8626 32.9566V29.4649C24.1407 29.4649 23.9666 28.1019 23.9666 27.0799V13.8768C23.9666 12.8973 24.1411 11.4918 19.8193 11.4918V8H45.3128C47.6264 8.08516 49.8092 8.80918 51.1625 10.7684C52.734 13.2385 52.3849 17.1568 50.8133 19.4988C47.8013 22.9064 42.2572 22.5231 36.8439 22.5231V27.0375C36.8439 27.975 36.6694 29.2948 40.5109 29.3799H41.7769V32.9574L19.8626 32.9566Z" fill="#BE64FF"/>
<path d="M52.6914 32.9574V29.4649C56.9696 29.4649 56.7954 28.1019 56.7954 27.0799V25.1635L56.8391 13.8773C56.8391 12.8979 56.97 11.4924 52.692 11.4924V8H83.467V17.7104H76.9186V13.1953C76.9186 11.4066 76.2638 11.577 74.4304 11.577H71.0697C69.2362 11.577 68.5808 11.4066 68.5808 13.1953V16.816C68.5808 18.6047 69.2362 18.4344 71.0697 18.4344H73.7321V22.5656H71.0697C69.2362 22.5656 68.5808 22.3953 68.5808 24.184V27.8047C68.5808 29.5934 69.6725 29.4231 71.5059 29.4231H72.5098C73.3394 29.4231 74.2119 29.4656 74.998 29.1676C75.5656 28.9121 75.8711 27.8899 76.1332 27.1233L76.9628 24.2698H83.4235V32.9154L52.6914 32.9574Z" fill="#BE64FF"/>
<path d="M101.365 11.833L97.567 22.3526H105.905L101.365 11.833ZM96.214 25.9297C95.6464 27.4203 95.3408 27.7609 95.2524 28.7406C95.2524 28.9961 95.5145 29.2517 95.7336 29.3795C96.7374 29.4646 99.7932 29.4646 99.7932 29.4646V33H84.6021V29.4649C86.1306 29.5926 87.7456 29.4223 88.6623 28.2297L89.3606 27.0371L96.4754 8H112.627L121.184 26.6967C121.621 27.591 121.882 28.6133 122.799 29.1668C123.41 29.4223 124.196 29.3371 124.851 29.4223C124.851 30.5297 124.894 32.9998 124.894 32.9998H104.42V29.4649C105.512 29.4649 106.865 29.4648 107.87 29.3797C107.998 29.3216 108.11 29.2324 108.194 29.1207C108.278 29.009 108.332 28.8782 108.35 28.7408C108.263 27.7613 107.957 27.4205 107.389 25.9299H96.214" fill="#BE64FF"/>
<path d="M125.986 33V29.5076C130.264 29.5076 130.09 28.1448 130.09 27.1226L130.134 13.9195C130.134 12.94 130.265 11.5346 125.987 11.5346V8H150.433C153.619 8 158.115 8.63887 158.115 14.2608C158.115 17.8383 155.408 19.116 154.23 19.9677C156.456 20.7344 158.944 22.3953 158.944 25.9729C158.944 30.0187 156.674 32.9574 149.864 32.9574H125.986V33ZM145.369 29.5076C147.857 29.5076 149.254 28.4856 149.254 26.0578C149.254 23.758 147.726 22.5227 145.413 22.5227H142.444V29.5072L145.369 29.5076ZM145.369 18.5621C147.857 18.5621 149.254 17.5401 149.254 15.1123C149.254 12.8125 147.726 11.5772 145.413 11.5772H142.444V18.5619H145.369V18.5621Z" fill="#BE64FF"/>
<path d="M157.984 32.5739H180.51V28.1872H160.866C160.429 30.1038 159.861 31.637 157.984 32.5739Z" fill="#BE64FF"/>
<path d="M0 21.5858V25.9725H21.9144V25.3764L21.958 21.5858H0Z" fill="#BE64FF"/>
<path d="M161.084 25.9725H180.51V21.5858H159.425C160.516 22.5654 160.997 23.9709 161.084 25.9725Z" fill="#BE64FF"/>
<path d="M157.679 19.414H180.51V15.0273H160.167C159.818 17.3696 158.857 18.6046 157.679 19.414Z" fill="#BE64FF"/>
<path d="M21.958 15.0273H0V19.414H21.958V15.0273Z" fill="#BE64FF"/>
<path d="M21.2159 12.0885C17.9419 11.9608 17.5924 12.5145 17.5924 8.42583H0V12.8125H21.9144C21.8271 12.5143 21.7398 12.0885 21.2159 12.0885Z" fill="#BE64FF"/>
<path d="M21.2159 29.0394C17.6798 29.2523 17.5924 28.3154 17.5924 32.5318H0V28.1451H21.9144C21.8271 28.4431 21.7398 29.0394 21.2159 29.0394Z" fill="#BE64FF"/>
<path d="M180.51 8.42583H157.897C159.643 9.6184 159.862 10.4702 160.167 12.8125H180.51V8.42583Z" fill="#BE64FF"/>
</svg>
