<svg width="149" height="20" viewBox="0 0 149 20" fill="none" xmlns="http://www.w3.org/2000/svg">
<path d="M46.2621 0.948446C47.5202 0.92423 48.7756 1.0729 49.9932 1.39028C50.94 1.63452 51.8145 2.10215 52.5434 2.75399C53.2249 3.40313 53.7282 4.21643 54.0052 5.11593C54.3383 6.21536 54.4966 7.36028 54.4744 8.50882V12.1581C54.4968 13.3075 54.3385 14.4534 54.0052 15.5537C53.7279 16.4523 53.2246 17.2646 52.5434 17.9129C51.8146 18.5648 50.9401 19.0325 49.9932 19.2766C48.7755 19.5935 47.5202 19.7421 46.2621 19.7185H33.7161C33.6055 19.7344 33.4927 19.7242 33.3868 19.6885C33.281 19.6528 33.185 19.5927 33.1066 19.513C33.0283 19.4334 32.9698 19.3364 32.9359 19.2299C32.902 19.1235 32.8936 19.0105 32.9115 18.9002V1.71758C32.8936 1.60728 32.902 1.49433 32.9359 1.38787C32.9698 1.28141 33.0283 1.18444 33.1066 1.10478C33.185 1.02511 33.281 0.965005 33.3868 0.929319C33.4927 0.893633 33.6055 0.883366 33.7161 0.899355L46.2621 0.948446ZM37.0053 15.6546C36.9985 15.7021 37.0028 15.7504 37.0179 15.7959C37.033 15.8414 37.0585 15.8827 37.0924 15.9166C37.1263 15.9505 37.1676 15.976 37.2131 15.9912C37.2586 16.0063 37.307 16.0106 37.3544 16.0037H46.1558C46.8241 16.0167 47.4913 15.9443 48.1413 15.7883C48.6282 15.6724 49.0766 15.4318 49.4423 15.09C49.792 14.7339 50.0373 14.2886 50.1514 13.8027C50.3082 13.1529 50.3806 12.4855 50.3669 11.8172V8.86611C50.3807 8.19775 50.3083 7.53039 50.1514 6.88055C50.0378 6.39366 49.7924 5.94739 49.4423 5.5905C49.0763 5.24918 48.6281 5.00861 48.1413 4.89228C47.4914 4.73606 46.8241 4.66364 46.1558 4.67681H37.3544C37.1199 4.67681 37.0053 4.80227 37.0053 5.05319V15.6546Z" fill="white"/>
<path d="M65.2897 0.948465C65.4697 0.948465 65.5952 1.06575 65.6661 1.29758L70.0136 15.7337C70.0146 15.7605 70.021 15.7868 70.0326 15.811C70.0441 15.8352 70.0604 15.8568 70.0806 15.8744C70.1008 15.892 70.1244 15.9053 70.1499 15.9135C70.1754 15.9217 70.2024 15.9246 70.229 15.9219H70.3627C70.4154 15.9224 70.4664 15.9034 70.5062 15.8687C70.5459 15.8341 70.5715 15.786 70.5781 15.7337L74.9256 2.50582C75.0416 2.01961 75.3148 1.58528 75.7029 1.2703C76.0646 1.04488 76.4853 0.932796 76.9112 0.948465H79.5677C80.0479 0.915211 80.5262 1.03764 80.9314 1.29758C81.3012 1.61528 81.568 2.0359 81.6978 2.50582L86.1516 15.7337C86.1583 15.786 86.1839 15.8341 86.2236 15.8687C86.2633 15.9034 86.3144 15.9224 86.3671 15.9219H86.528C86.6344 15.9219 86.7053 15.8592 86.7435 15.7337L90.9819 1.29758C90.991 1.24268 91.0112 1.19021 91.0412 1.14333C91.0712 1.09645 91.1104 1.05615 91.1564 1.02484C91.2337 0.98082 91.3211 0.957346 91.4101 0.956655H95.0321C95.0904 0.949489 95.1493 0.965024 95.1965 1.00005C95.2437 1.03508 95.2757 1.08693 95.2857 1.14485C95.3119 1.28931 95.2987 1.43815 95.2475 1.57576L90.0873 17.7056C89.8364 18.5111 89.5591 19.0566 89.2554 19.3421C88.9114 19.6326 88.4695 19.7809 88.0199 19.7567H84.8807C84.6586 19.7696 84.4361 19.7381 84.2263 19.6641C84.0166 19.5901 83.8236 19.4751 83.6588 19.3257C83.3642 19.0403 83.0824 18.5039 82.8133 17.7166L78.5994 4.97139C78.5984 4.94486 78.592 4.91881 78.5807 4.89481C78.5693 4.87082 78.5532 4.84938 78.5333 4.83179C78.5134 4.8142 78.4902 4.80082 78.465 4.79247C78.4398 4.78412 78.4132 4.78097 78.3867 4.7832H78.2803C78.2536 4.78016 78.2265 4.78272 78.2008 4.79074C78.1751 4.79875 78.1514 4.81205 78.1311 4.82976C78.1108 4.84747 78.0944 4.86921 78.083 4.8936C78.0716 4.91798 78.0655 4.94448 78.0649 4.97139L73.7965 17.7056C73.5292 18.493 73.2474 19.0294 72.951 19.3148C72.7861 19.4642 72.5932 19.5792 72.3834 19.6532C72.1736 19.7272 71.9512 19.7587 71.7291 19.7457H68.6717C68.4057 19.7494 68.1403 19.7219 67.8807 19.6639C67.658 19.6111 67.4512 19.5054 67.278 19.3557C67.081 19.1792 66.9215 18.965 66.8089 18.7257C66.6513 18.3969 66.5208 18.0557 66.4189 17.7056L61.4822 1.5785C61.431 1.43715 61.4169 1.28501 61.4413 1.13666C61.4538 1.08093 61.4869 1.03199 61.5339 0.99962C61.581 0.96725 61.6385 0.953841 61.695 0.962099L65.2897 0.948465Z" fill="white"/>
<path d="M129.479 0.948465C129.605 0.941214 129.731 0.96711 129.844 1.02358C129.957 1.08004 130.053 1.1651 130.123 1.2703L137.288 10.958L144.507 1.2703C144.577 1.16491 144.673 1.0797 144.786 1.02321C144.899 0.966719 145.025 0.940937 145.151 0.948465H148.677C148.738 0.943646 148.799 0.957836 148.852 0.989083C148.905 1.02033 148.947 1.06711 148.972 1.12302C148.998 1.18253 149.006 1.24808 148.996 1.31221C148.987 1.37634 148.959 1.43648 148.917 1.48577L139.281 13.9909V19.143C139.293 19.223 139.285 19.3046 139.26 19.3812C139.234 19.4579 139.191 19.5276 139.134 19.5847C139.077 19.6419 139.007 19.6849 138.93 19.7105C138.854 19.7361 138.772 19.7435 138.692 19.7321H135.785C135.373 19.7321 135.168 19.5357 135.168 19.143V13.9909L125.642 1.48577C125.599 1.43652 125.571 1.37712 125.559 1.31348C125.547 1.24984 125.552 1.18418 125.573 1.12302C125.598 1.06416 125.642 1.01518 125.698 0.98364C125.754 0.952099 125.818 0.939739 125.882 0.948465H129.479Z" fill="white"/>
<path d="M25.2536 19.1157L16.3704 2.97762C15.9231 2.17213 15.4686 1.62664 15.0067 1.34118C14.4826 1.04824 13.8885 0.903948 13.2885 0.923875H11.7066C11.1755 0.912281 10.6528 1.05743 10.2038 1.34118C9.77466 1.61755 9.33646 2.16303 8.88916 2.97762L0.0878238 19.1048C0.0458944 19.1694 0.0181322 19.2422 0.0063795 19.3184C-0.00537319 19.3945 -0.000849678 19.4723 0.0196387 19.5466C0.0660046 19.6639 0.202375 19.7212 0.436931 19.7212H3.92528C4.05085 19.7293 4.17606 19.7006 4.28556 19.6386C4.39505 19.5766 4.48406 19.4839 4.54167 19.3721L12.2957 4.93589C12.3224 4.87968 12.3646 4.83218 12.4172 4.79888C12.4698 4.76558 12.5307 4.74784 12.593 4.7477H12.7539C12.8158 4.74803 12.8763 4.76588 12.9284 4.79919C12.9805 4.8325 13.0222 4.87989 13.0485 4.93589L20.9116 19.3721C20.9656 19.4868 21.0539 19.582 21.1643 19.6445C21.2747 19.707 21.4017 19.7338 21.528 19.7212H24.9345C25.15 19.7212 25.2781 19.6639 25.3245 19.5466C25.343 19.4738 25.3463 19.3979 25.3341 19.3237C25.3219 19.2496 25.2945 19.1787 25.2536 19.1157Z" fill="white"/>
<path d="M123.922 19.1157L115.042 2.97764C114.594 2.17215 114.14 1.62667 113.678 1.3412C113.155 1.04849 112.562 0.904194 111.963 0.923898H110.378C109.847 0.912628 109.324 1.05775 108.875 1.3412C108.446 1.61758 108.008 2.16306 107.561 2.97764L98.7646 19.1157C98.7232 19.1806 98.6959 19.2535 98.6846 19.3296C98.6733 19.4058 98.6783 19.4834 98.6992 19.5575C98.7428 19.6748 98.8819 19.7321 99.1137 19.7321H102.583C102.709 19.7402 102.834 19.7115 102.943 19.6495C103.053 19.5875 103.142 19.4949 103.199 19.383L110.956 4.94682C110.983 4.89102 111.024 4.84381 111.076 4.81054C111.129 4.77726 111.189 4.75929 111.251 4.75865H111.412C111.473 4.75929 111.534 4.77726 111.586 4.81054C111.638 4.84381 111.68 4.89102 111.706 4.94682L119.569 19.383C119.623 19.4978 119.712 19.593 119.822 19.6555C119.932 19.718 120.059 19.7448 120.186 19.7321H123.595C123.81 19.7321 123.939 19.6748 123.982 19.5575C124.004 19.4838 124.01 19.4064 123.999 19.3302C123.989 19.2541 123.963 19.181 123.922 19.1157Z" fill="white"/>
</svg>
